<?xml version="1.0" ?><svg xmlns="http://www.w3.org/2000/svg" width="512" height="512" viewBox="0 0 512 512" fill="none"><path d="M83.234 394.845H53V455H113.468V394.845H83.234ZM83.234 394.845V321.8H428.766V392.697M256 392.697H225.766V452.852H286.234V392.697H256ZM256 392.697V211.5M428.766 392.697H398.532V452.852H459V392.697H428.766ZM256.156 137.435C290.367 137.435 320.313 165.096 320.313 199.217V211.5H192V199.217C192 165.096 221.946 137.435 256.156 137.435ZM256.156 137.435C278.149 137.435 295.978 119.653 295.978 97.7174C295.978 75.7821 278.149 58 256.156 58C234.164 58 216.335 75.7821 216.335 97.7174C216.335 119.653 234.164 137.435 256.156 137.435Z" stroke="black" stroke-width="13.5"/></svg>